<?xml version="1.0" standalone="no"?>
<!DOCTYPE svg PUBLIC "-//W3C//DTD SVG 20010904//EN"
 "http://www.w3.org/TR/2001/REC-SVG-20010904/DTD/svg10.dtd">
<svg version="1.0" xmlns="http://www.w3.org/2000/svg"
 width="500.000000pt" height="500.000000pt" viewBox="0 0 500.000000 500.000000"
 preserveAspectRatio="xMidYMid meet">

<g transform="translate(0.000000,500.000000) scale(0.100000,-0.100000)"
fill="#000000" stroke="none">
<path d="M2640 3730 c-115 -8 -254 -29 -246 -37 3 -3 78 0 167 7 385 31 658
-29 804 -175 199 -198 385 -689 385 -1013 0 -149 -37 -242 -130 -325 -187
-168 -533 -300 -989 -377 -64 -11 -128 -20 -144 -20 -27 0 -27 1 -20 43 6 39
5 41 -11 28 -10 -8 -29 -37 -43 -65 -23 -46 -25 -58 -21 -141 7 -137 57 -230
173 -322 l40 -32 -65 15 c-234 52 -431 244 -511 500 -18 57 -37 104 -42 104
-6 0 -8 -30 -5 -70 l5 -70 -32 0 c-60 0 -260 39 -327 63 -272 99 -378 305
-378 736 0 326 64 572 181 696 131 139 396 264 772 366 86 24 155 44 153 46
-1 2 -43 -4 -92 -12 -282 -49 -583 -156 -753 -270 -180 -119 -267 -287 -307
-589 -20 -147 -14 -463 10 -566 51 -223 129 -338 283 -418 126 -65 340 -122
460 -122 l42 0 42 -86 c30 -61 62 -107 114 -162 126 -134 255 -194 417 -196
137 -1 140 5 42 101 -47 47 -92 102 -111 138 -30 57 -63 188 -51 201 3 3 66
14 139 24 598 87 1072 308 1184 553 116 253 -39 860 -309 1204 -124 158 -260
220 -533 243 -128 10 -136 10 -293 0z"/>
<path d="M1770 3394 c-103 -34 -204 -104 -265 -186 -58 -77 -67 -96 -94 -182
-25 -80 -28 -223 -7 -271 17 -37 22 -25 30 63 20 220 124 393 312 518 46 31
84 58 84 60 0 5 -41 4 -60 -2z"/>
<path d="M3363 3158 c4 -25 30 -133 59 -240 51 -188 53 -197 53 -328 0 -135 0
-135 -34 -198 -43 -79 -149 -180 -264 -251 -48 -30 -93 -61 -99 -69 -11 -13
-9 -14 17 -8 42 10 187 80 238 114 98 68 163 149 199 251 16 43 20 81 20 166
0 128 -16 189 -111 434 -65 169 -87 206 -78 129z"/>
<path d="M2015 3142 c-165 -57 -304 -211 -350 -388 -35 -133 -10 -301 57 -396
71 -99 149 -139 281 -146 196 -10 337 76 337 206 0 83 -61 95 -153 33 -118
-80 -248 -63 -307 41 -21 37 -25 55 -25 128 1 172 91 299 227 324 45 8 78 -7
78 -35 0 -41 19 -59 59 -59 99 0 149 172 75 259 -14 17 -42 35 -62 41 -56 15
-161 11 -217 -8z"/>
<path d="M2459 3150 c-27 -16 -42 -65 -35 -115 7 -45 48 -109 141 -220 23 -27
61 -78 84 -113 l42 -63 -30 -77 c-90 -235 -78 -362 36 -362 43 0 69 24 83 77
73 282 161 453 315 613 97 101 105 115 105 177 0 66 -22 93 -78 93 -29 0 -49
-9 -92 -45 -62 -51 -142 -142 -199 -227 l-39 -58 -70 93 c-38 50 -86 118 -106
149 -20 31 -46 64 -58 72 -25 18 -74 20 -99 6z"/>
<path d="M3505 1850 c-107 -59 -296 -138 -417 -175 -48 -14 -90 -30 -93 -34
-10 -17 48 -22 127 -11 163 23 345 108 456 213 76 74 52 76 -73 7z"/>
</g>
</svg>
