<?xml version="1.0" standalone="no"?>
<!DOCTYPE svg PUBLIC "-//W3C//DTD SVG 20010904//EN"
 "http://www.w3.org/TR/2001/REC-SVG-20010904/DTD/svg10.dtd">
<svg version="1.0" xmlns="http://www.w3.org/2000/svg"
 width="250.000000pt" height="221.000000pt" viewBox="0 0 250.000000 221.000000"
 preserveAspectRatio="xMidYMid meet">

<g transform="translate(0.000000,221.000000) scale(0.100000,-0.100000)"
fill="#000000" stroke="none">
<path d="M235 2151 c-74 -13 -142 -64 -165 -126 -13 -34 -17 -948 -4 -987 12
-41 67 -100 108 -119 24 -11 64 -19 98 -19 l56 0 4 -119 c2 -100 6 -122 22
-140 35 -38 65 -27 233 84 l158 105 5 -168 c6 -179 16 -217 72 -269 54 -51 71
-53 461 -53 l364 0 209 -140 c219 -147 246 -158 284 -120 18 18 20 33 20 140
l0 120 58 0 c101 1 188 62 212 150 7 27 10 194 8 502 -3 444 -4 464 -23 493
-31 47 -62 75 -103 93 -31 14 -80 17 -304 20 l-268 3 0 197 c0 181 -2 201 -21
237 -26 50 -59 81 -107 103 -33 15 -100 17 -687 18 -357 1 -668 -2 -690 -5z
m1346 -160 c18 -22 19 -45 19 -467 0 -431 -1 -445 -20 -464 -19 -19 -33 -20
-390 -20 -298 0 -376 -3 -398 -14 -15 -8 -92 -57 -172 -110 l-145 -97 -3 78
c-1 43 -4 87 -7 99 -7 32 -47 44 -144 44 -74 0 -91 3 -105 19 -16 17 -17 58
-17 466 0 471 -1 466 46 486 11 4 312 7 668 6 l649 -2 19 -24z m-43 -1178 c2
-59 6 -71 29 -91 19 -17 33 -22 52 -17 50 12 61 32 61 107 l0 68 38 0 38 0 -1
-50 c-1 -27 -3 -63 -3 -80 -2 -32 -53 -97 -86 -109 -17 -7 -19 -16 -17 -64 l2
-57 -40 0 -41 0 0 60 c0 46 -3 60 -15 60 -24 0 -73 55 -84 96 -6 22 -11 63
-11 92 l0 52 38 0 37 0 3 -67z m443 -28 c90 -47 92 -193 3 -251 -39 -26 -112
-23 -152 6 -39 29 -67 97 -58 142 19 95 122 146 207 103z m179 -82 c0 -49 4
-93 8 -99 14 -20 45 -25 68 -9 22 14 24 22 24 105 l0 90 35 0 35 0 0 -135 c0
-86 -4 -135 -10 -135 -6 0 -13 7 -17 15 -5 14 -8 14 -31 -1 -55 -36 -139 -12
-169 47 -7 14 -13 63 -13 117 l0 92 35 0 35 0 0 -87z"/>
<path d="M333 1662 c-61 -32 -82 -88 -58 -150 9 -21 29 -46 44 -55 57 -33 164
-12 132 26 -9 12 -19 14 -37 6 -50 -18 -104 16 -104 67 0 51 71 92 108 62 20
-17 49 20 30 38 -23 21 -81 24 -115 6z"/>
<path d="M1400 1645 c0 -19 -4 -35 -10 -35 -5 0 -10 -9 -10 -20 0 -11 5 -20
10 -20 6 0 10 -14 10 -30 0 -42 25 -86 52 -94 44 -11 58 -7 58 18 0 19 -6 25
-27 28 -24 3 -28 8 -31 41 -3 35 -2 37 27 37 24 0 31 4 31 20 0 16 -7 20 -30
20 -28 0 -30 3 -30 35 0 31 -3 35 -25 35 -22 0 -25 -4 -25 -35z"/>
<path d="M496 1589 c-35 -41 -34 -83 3 -120 47 -47 111 -36 136 23 39 94 -75
173 -139 97z m82 -25 c27 -19 29 -60 3 -74 -29 -15 -39 -13 -57 15 -15 23 -15
27 0 50 19 29 24 30 54 9z"/>
<path d="M670 1531 c0 -90 1 -92 22 -89 20 3 23 9 23 55 1 57 12 77 41 71 16
-3 20 -14 22 -66 3 -58 4 -62 27 -62 23 0 25 4 25 43 0 76 -16 114 -55 127
-25 8 -39 8 -55 0 -16 -9 -25 -8 -36 1 -12 10 -14 -2 -14 -80z"/>
<path d="M860 1532 c0 -85 2 -92 20 -92 16 0 19 8 22 56 3 60 20 83 52 71 12
-5 16 -20 16 -67 0 -53 2 -60 20 -60 18 0 20 7 20 61 0 33 -5 69 -11 80 -14
27 -51 40 -87 29 -20 -5 -34 -4 -41 3 -8 8 -11 -14 -11 -81z"/>
<path d="M1066 1595 c-18 -20 -26 -39 -26 -65 0 -73 85 -117 140 -72 20 16 20
19 7 31 -12 9 -21 10 -37 1 -36 -19 -33 -6 10 46 46 56 41 72 -28 81 -35 5
-44 2 -66 -22z m64 -24 c0 -6 -11 -23 -25 -38 -23 -27 -24 -27 -25 -6 0 12 10
29 22 37 26 19 28 19 28 7z"/>
<path d="M1234 1587 c-35 -42 -29 -100 15 -134 41 -32 146 4 107 36 -11 10
-19 9 -35 -1 -29 -18 -55 0 -59 41 -3 25 1 33 20 40 17 6 28 4 41 -7 16 -14
19 -14 35 2 16 16 16 18 -8 36 -36 28 -86 23 -116 -13z"/>
<path d="M1877 719 c-44 -26 -38 -111 9 -129 72 -28 127 65 71 118 -25 24 -52
27 -80 11z"/>
</g>
</svg>
